<svg width="420" height="260" viewBox="0 0 420 260" fill="none" xmlns="http://www.w3.org/2000/svg">
  <rect width="420" height="260" rx="36" fill="#F4EAD7"/>
  <rect x="42" y="34" width="238" height="178" rx="18" fill="#FFFDF6" stroke="#1E2B32" stroke-width="5"/>
  <rect x="64" y="66" width="96" height="10" rx="5" fill="#C8442D"/>
  <rect x="64" y="94" width="162" height="8" rx="4" fill="#314850" fill-opacity=".22"/>
  <rect x="64" y="118" width="182" height="8" rx="4" fill="#314850" fill-opacity=".22"/>
  <rect x="64" y="142" width="136" height="8" rx="4" fill="#314850" fill-opacity=".22"/>
  <path d="M311 60c21 19 32 45 32 78 0 31-10 56-29 76" stroke="#277260" stroke-width="18" stroke-linecap="round"/>
  <path d="M308 83c13 14 20 32 20 55 0 22-7 40-21 55" stroke="#F4EAD7" stroke-width="9" stroke-linecap="round"/>
  <circle cx="320" cy="137" r="27" fill="#C8442D"/>
  <path d="M307 137l9 10 18-23" stroke="#FFFDF6" stroke-width="8" stroke-linecap="round" stroke-linejoin="round"/>
  <path d="M262 205l25 21 11-55" fill="#E0B64B"/>
  <path d="M285 226l30-42" stroke="#1E2B32" stroke-width="5" stroke-linecap="round"/>
</svg>
